<?xml version="1.0" standalone="no"?>
<!DOCTYPE svg PUBLIC "-//W3C//DTD SVG 20010904//EN"
 "http://www.w3.org/TR/2001/REC-SVG-20010904/DTD/svg10.dtd">
<svg version="1.0" xmlns="http://www.w3.org/2000/svg"
 width="200" height="150" viewBox="0 0 578 458 "
 preserveAspectRatio="xMidYMid meet">

<g transform="translate(0.000000,458.000000) scale(0.100000,-0.100000)"
fill="#000000" stroke="none">
<path d="M2695 3330 c-60 -4 -124 -8 -141 -9 -54 -2 -114 -52 -183 -155 -35
-52 -61 -100 -59 -108 4 -11 108 -13 572 -14 312 0 569 3 572 8 7 10 -35 83
-88 156 -61 82 -103 108 -190 115 -133 12 -371 15 -483 7z"/>
<path d="M2124 3140 c-57 -23 -27 -67 50 -74 27 -3 56 -11 64 -19 12 -13 8
-15 -35 -15 -103 0 -213 -90 -238 -194 -9 -35 8 -37 23 -3 18 39 91 114 140
142 33 20 59 26 103 27 47 1 56 3 44 12 -19 14 -19 24 0 24 25 0 19 57 -10 85
-19 20 -34 25 -72 24 -26 0 -58 -4 -69 -9z"/>
<path d="M3525 3140 c-29 -11 -43 -30 -47 -65 -2 -25 1 -31 20 -33 13 -2 30 2
39 9 8 8 33 15 55 16 50 4 78 19 78 44 0 33 -90 52 -145 29z"/>
<path d="M3520 3027 l-35 -11 57 -6 c92 -11 174 -72 232 -170 19 -31 21 -33
24 -13 8 55 -68 146 -158 187 -60 28 -69 29 -120 13z"/>
<path d="M2118 2869 c-30 -17 -20 -38 22 -49 22 -6 93 -31 158 -56 133 -50
197 -65 190 -43 -9 26 -97 84 -187 122 -90 37 -150 46 -183 26z"/>
<path d="M3555 2873 c-110 -26 -274 -116 -275 -150 0 -22 36 -14 172 36 73 27
150 54 170 60 47 15 57 30 33 48 -18 13 -60 15 -100 6z"/>
<path d="M2847 2712 c-32 -34 -33 -36 -6 -73 29 -41 62 -38 89 7 l22 35 -28
30 c-34 36 -43 36 -77 1z"/>
<path d="M2079 2602 c-7 -41 22 -87 63 -101 17 -6 83 -11 147 -10 132 1 140
-7 -81 73 -71 25 -129 42 -129 38z"/>
<path d="M3537 2555 c-81 -29 -151 -55 -154 -59 -12 -12 222 -6 246 7 33 17
63 60 59 84 -3 19 -11 18 -151 -32z"/>
<path d="M1978 2508 l-3 -72 -35 -12 c-19 -7 -75 -25 -125 -41 l-90 -28 334
-3 c330 -2 387 2 466 32 33 12 97 15 358 16 303 0 320 -1 375 -22 54 -21 74
-22 422 -25 202 -2 358 1 350 5 -8 5 -66 24 -127 43 l-113 34 0 72 c0 81 -11
93 -29 34 -6 -22 -27 -53 -46 -70 l-36 -31 -795 0 c-907 0 -831 -8 -873 90
-12 27 -23 50 -26 50 -2 0 -5 -32 -7 -72z"/>
<path d="M61 2028 c0 -7 19 -67 42 -133 l42 -120 36 -3 37 -3 41 123 c23 68
41 129 41 136 0 9 -11 12 -32 10 -30 -3 -33 -7 -56 -75 -13 -40 -27 -73 -30
-73 -4 0 -18 33 -32 73 -24 68 -27 72 -57 75 -22 2 -33 -1 -32 -10z"/>
<path d="M400 1905 l0 -136 83 3 c81 3 82 3 85 30 3 26 1 27 -45 30 -35 2 -49
7 -51 20 -3 13 6 17 40 20 40 3 43 5 43 33 0 28 -3 30 -42 33 -62 5 -58 30 5
34 45 3 47 4 47 33 l0 30 -82 3 -83 3 0 -136z"/>
<path d="M687 2034 c-4 -4 -7 -65 -7 -136 l0 -128 85 0 85 0 0 29 c0 28 -2 30
-47 33 l-48 3 -5 100 c-5 98 -5 100 -30 103 -14 2 -29 0 -33 -4z"/>
<path d="M1011 2023 c-52 -27 -76 -66 -75 -121 1 -81 53 -133 134 -134 46 0
100 30 121 68 19 36 16 106 -5 138 -38 58 -116 80 -175 49z m109 -75 c11 -12
20 -32 20 -45 0 -30 -42 -73 -70 -73 -29 0 -70 44 -70 75 0 58 79 87 120 43z"/>
<path d="M1560 2022 c-43 -21 -80 -75 -80 -116 0 -53 39 -108 93 -130 47 -20
47 -20 93 0 26 10 53 29 61 41 14 20 13 23 -14 36 -26 14 -30 13 -52 -4 -31
-26 -57 -24 -86 6 -65 64 14 149 90 99 23 -15 27 -15 51 1 25 16 25 17 7 37
-44 49 -104 60 -163 30z"/>
<path d="M1898 2018 c-98 -57 -88 -193 17 -239 56 -25 107 -14 150 31 39 40
46 119 15 168 -38 60 -117 78 -182 40z m117 -68 c22 -24 24 -75 4 -95 -45 -44
-119 -13 -119 50 0 59 76 88 115 45z"/>
<path d="M2205 2028 c-3 -8 -4 -68 -3 -134 l3 -119 33 -3 32 -3 0 67 c0 56 2
65 14 55 8 -6 19 -25 26 -41 7 -17 20 -30 30 -30 10 0 23 13 30 30 7 16 18 35
26 41 12 10 14 1 14 -55 l0 -66 30 0 30 0 0 125 c0 69 0 128 0 133 0 4 -14 7
-32 7 -28 0 -36 -6 -62 -52 -17 -29 -33 -53 -36 -53 -3 0 -19 24 -36 53 -25
44 -35 52 -62 55 -20 2 -34 -2 -37 -10z"/>
<path d="M2608 2034 c-5 -4 -8 -65 -8 -136 l0 -129 33 3 c30 3 32 6 35 46 2
26 8 42 15 41 89 -11 141 80 83 147 -20 24 -33 28 -87 32 -35 2 -67 0 -71 -4z
m116 -73 c11 -18 -6 -41 -30 -41 -19 0 -24 5 -24 25 0 20 5 25 24 25 14 0 27
-4 30 -9z"/>
<path d="M2890 1905 l0 -136 33 3 c29 3 32 7 37 41 3 21 10 38 15 39 6 1 20
-18 33 -40 20 -37 28 -42 58 -42 40 0 41 6 12 55 -20 35 -20 38 -5 65 24 40
21 84 -7 117 -21 25 -31 28 -100 31 l-76 4 0 -137z m134 56 c12 -19 -7 -41
-35 -41 -24 0 -29 4 -29 25 0 21 5 25 29 25 17 0 32 -4 35 -9z"/>
<path d="M3285 2028 c-2 -7 -22 -62 -45 -122 -22 -60 -40 -115 -40 -122 0 -9
11 -14 30 -14 23 0 33 6 42 25 9 20 18 25 49 25 30 0 42 -6 55 -25 11 -17 25
-25 45 -25 16 0 29 5 29 10 0 6 -21 66 -46 135 l-46 125 -34 0 c-19 0 -37 -6
-39 -12z m53 -131 c2 -10 -3 -17 -12 -17 -10 0 -16 9 -16 21 0 24 23 21 28 -4z"/>
<path d="M3565 2015 c-46 -46 -26 -104 46 -134 27 -11 49 -25 49 -31 0 -19
-30 -22 -56 -5 -24 15 -27 15 -50 0 -23 -15 -24 -18 -11 -38 31 -48 121 -53
168 -11 45 41 10 119 -63 140 -39 11 -49 34 -16 34 13 0 29 -5 34 -10 8 -8 18
-5 35 10 l24 20 -28 25 c-38 34 -98 34 -132 0z"/>
<path d="M4084 2026 c-48 -21 -74 -65 -74 -126 0 -47 4 -56 39 -91 34 -34 44
-39 85 -39 58 0 101 21 126 63 39 63 16 146 -52 187 -38 23 -80 25 -124 6z
m104 -72 c32 -22 30 -76 -4 -103 -35 -28 -59 -26 -91 5 -62 62 22 149 95 98z"/>
<path d="M4384 2027 c-2 -7 -3 -67 -2 -133 l3 -119 32 -3 32 -3 3 68 3 68 44
-67 c38 -57 49 -68 73 -68 l28 0 0 136 0 135 -32 -3 c-32 -3 -33 -4 -35 -53
-1 -27 -2 -54 -2 -60 -1 -5 -19 18 -41 53 -35 53 -45 62 -71 62 -16 0 -32 -6
-35 -13z"/>
<path d="M4727 2033 c-4 -3 -7 -64 -7 -135 l0 -128 84 0 c87 0 98 5 88 42 -3
12 -17 18 -51 20 l-46 3 -3 103 -3 102 -28 0 c-15 0 -31 -3 -34 -7z"/>
<path d="M5000 1905 l0 -135 29 0 c36 0 37 5 33 153 l-4 117 -29 0 -29 0 0
-135z"/>
<path d="M5190 1905 l0 -136 33 3 c32 3 32 3 33 61 1 31 3 60 6 63 3 3 24 -25
47 -61 37 -58 45 -66 69 -63 l27 3 0 130 0 130 -32 3 -32 3 -3 -63 -3 -63 -40
60 c-34 50 -46 61 -73 63 l-32 3 0 -136z"/>
<path d="M5530 1905 l0 -135 85 0 85 0 0 30 c0 29 -1 30 -50 30 -43 0 -50 3
-50 19 0 16 8 20 43 23 39 3 42 5 45 36 3 32 3 32 -42 32 -33 0 -46 4 -46 14
0 11 14 16 48 18 45 3 47 4 47 33 l0 30 -82 3 -83 3 0 -136z"/>
<path d="M661 1548 c-5 -13 -21 -54 -36 -91 -28 -68 -26 -102 2 -59 12 17 25
22 58 22 33 0 46 -5 58 -22 31 -47 28 -6 -6 79 -36 92 -60 113 -76 71z m47
-66 c12 -36 2 -48 -35 -40 -19 4 -19 20 -2 66 11 29 21 22 37 -26z"/>
<path d="M916 1540 c-34 -41 -35 -88 0 -129 20 -25 34 -31 64 -31 44 0 70 8
70 22 0 6 -16 7 -39 3 -48 -8 -74 5 -90 43 -25 61 20 109 91 97 32 -6 39 -4
36 6 -3 9 -24 15 -55 17 -46 3 -53 0 -77 -28z"/>
<path d="M1190 1475 l0 -95 67 0 c75 0 77 17 3 22 -40 3 -45 6 -48 30 -3 25 0
27 40 30 52 4 53 21 1 28 -33 4 -38 9 -38 30 0 22 5 25 45 28 74 5 72 22 -3
22 l-67 0 0 -95z"/>
<path d="M1454 1557 c-3 -8 -4 -49 -2 -93 l3 -79 63 -3 c38 -2 62 1 62 8 0 5
-22 10 -50 10 l-50 0 0 85 c0 52 -4 85 -10 85 -6 0 -13 -6 -16 -13z"/>
<path d="M1718 1523 c-1 -27 -2 -69 0 -95 l3 -48 60 0 c33 0 59 4 59 10 0 6
-22 10 -50 10 -49 0 -50 1 -50 30 0 28 2 30 41 30 52 0 48 24 -5 28 -34 3 -37
6 -34 30 3 25 7 27 51 30 68 4 58 22 -12 22 l-59 0 -4 -47z"/>
<path d="M1980 1475 c0 -57 4 -95 10 -95 10 0 14 13 11 36 -3 27 32 23 61 -6
29 -30 48 -38 48 -21 0 5 -7 14 -15 21 -20 17 -19 26 5 50 11 11 20 31 20 45
0 41 -33 65 -90 65 l-50 0 0 -95z m98 63 c16 -16 15 -53 -2 -67 -8 -7 -27 -11
-43 -9 -22 2 -29 9 -31 31 -2 16 -1 35 2 43 7 17 57 19 74 2z"/>
<path d="M2254 1557 c-3 -8 -4 -49 -2 -93 l3 -79 63 -3 c38 -2 62 1 62 8 0 5
-22 10 -50 10 -49 0 -50 1 -50 30 0 28 2 30 41 30 52 0 48 24 -4 28 -34 3 -37
6 -37 33 0 28 1 29 50 29 28 0 50 5 50 10 0 16 -120 13 -126 -3z"/>
<path d="M2706 1551 c-26 -28 -13 -54 42 -82 50 -25 59 -45 29 -63 -13 -8 -24
-7 -49 7 -33 19 -44 17 -35 -6 18 -46 127 -32 127 16 0 27 -19 46 -67 71 -18
9 -33 23 -33 31 0 19 48 31 63 16 6 -6 17 -11 24 -11 11 0 11 5 3 20 -15 27
-80 28 -104 1z"/>
<path d="M2955 1547 c-3 -12 -4 -49 -1 -82 3 -33 5 -66 5 -72 1 -16 121 -18
121 -3 0 6 -22 10 -50 10 -49 0 -50 1 -50 30 0 28 2 30 40 30 29 0 40 4 40 15
0 11 -11 15 -41 15 -38 0 -40 1 -37 28 3 25 7 27 51 30 68 4 58 22 -13 22 -54
0 -60 -2 -65 -23z"/>
<path d="M3220 1498 c1 -78 11 -101 51 -117 30 -11 83 8 93 34 10 27 7 155 -4
155 -6 0 -10 -29 -10 -68 0 -80 -19 -109 -65 -98 -32 8 -45 41 -45 112 0 30
-4 54 -10 54 -6 0 -10 -31 -10 -72z"/>
<path d="M3680 1475 l0 -95 60 0 c71 0 81 18 13 22 -44 3 -48 5 -48 28 0 22 5
25 38 28 23 2 37 8 37 17 0 9 -14 15 -37 17 -33 3 -38 6 -38 28 0 23 4 25 48
28 68 4 58 22 -13 22 l-60 0 0 -95z"/>
<path d="M3958 1546 c-15 -34 -6 -50 44 -77 23 -14 44 -32 46 -41 5 -25 -42
-34 -72 -15 -29 20 -42 10 -19 -15 25 -28 88 -24 109 7 15 23 15 27 0 49 -8
14 -26 28 -38 31 -38 12 -60 36 -47 52 14 16 51 17 67 1 17 -17 28 -2 12 17
-7 9 -29 15 -51 15 -32 0 -42 -5 -51 -24z"/>
<path d="M4220 1560 c0 -5 11 -10 25 -10 25 0 25 -1 25 -85 0 -69 3 -85 15
-85 12 0 15 16 15 85 0 83 0 85 24 85 14 0 28 5 31 10 4 6 -20 10 -64 10 -41
0 -71 -4 -71 -10z"/>
<path d="M4494 1557 c-10 -27 1 -170 14 -175 9 -3 12 20 12 92 0 59 -4 96 -10
96 -6 0 -13 -6 -16 -13z"/>
<path d="M4652 1478 l3 -93 63 -3 c43 -2 62 0 57 7 -3 6 -26 11 -50 11 l-44 0
-3 82 c-2 55 -7 83 -16 86 -10 3 -12 -17 -10 -90z"/>
<path d="M4929 1541 c-88 -89 43 -219 138 -137 23 20 28 32 28 71 0 39 -5 51
-28 71 -41 35 -99 33 -138 -5z m121 -11 c24 -24 27 -82 4 -104 -20 -20 -57
-30 -83 -21 -28 9 -53 58 -45 90 13 53 86 73 124 35z"/>
</g>
</svg>
